<svg xmlns="http://www.w3.org/2000/svg" width="337.41" height="69.414" viewBox="0 0 337.41 69.414"><path d="M21.252-29.6c3.933,0,7.245,2.415,7.245,6.624H13.731C14.421-27.255,17.388-29.6,21.252-29.6ZM39.675-12.765H27.117a6.274,6.274,0,0,1-6.141,3.726c-3.8,0-6.9-2.346-7.314-7.383h26.7a29.816,29.816,0,0,0,.207-3.45c0-11.73-7.935-19.182-19.182-19.182-11.454,0-19.458,7.59-19.458,19.8S10.074.552,21.39.552C30.981.552,37.812-5.244,39.675-12.765ZM74.313,0H87.561L74.313-19.113,87.216-38.5H74.451l-6.21,10.626L60.858-38.5H47.61L60.651-19.665,47.955,0H60.72l6.21-10.695ZM94.53-19.32c0,12.144,7.521,19.872,16.9,19.872,5.727,0,9.8-2.622,11.937-6V0h11.8V-38.5h-11.8v5.451c-2.07-3.381-6.141-6-11.868-6C102.051-39.054,94.53-31.464,94.53-19.32Zm28.842.069c0,6.141-3.933,9.522-8.418,9.522-4.416,0-8.418-3.45-8.418-9.591s4-9.453,8.418-9.453C119.439-28.773,123.372-25.392,123.372-19.251ZM201.549,0h11.73V-22.494c0-10.35-6.141-16.422-15.663-16.422a15.486,15.486,0,0,0-12.972,7.176c-2.622-4.623-7.314-7.176-13.11-7.176a13.583,13.583,0,0,0-11.247,5.244V-38.5h-11.8V0h11.8V-20.907c0-5.037,2.9-7.8,7.383-7.8s7.383,2.76,7.383,7.8V0h11.73V-20.907c0-5.037,2.9-7.8,7.383-7.8s7.383,2.76,7.383,7.8Zm36.57-33.051V-38.5h-11.8V18.354h11.8V-5.382A13.849,13.849,0,0,0,249.987.552c9.453,0,16.974-7.728,16.974-19.872s-7.521-19.734-16.974-19.734C244.329-39.054,240.258-36.432,238.119-33.051ZM254.955-19.32c0,6.141-4,9.591-8.487,9.591-4.416,0-8.418-3.381-8.418-9.522s4-9.522,8.418-9.522C250.953-28.773,254.955-25.461,254.955-19.32ZM277.932,0h11.8V-51.06h-11.8Zm42.09-29.6c3.933,0,7.245,2.415,7.245,6.624H312.5C313.191-27.255,316.158-29.6,320.022-29.6Zm18.423,16.836H325.887a6.274,6.274,0,0,1-6.141,3.726c-3.8,0-6.9-2.346-7.314-7.383h26.7a29.816,29.816,0,0,0,.207-3.45c0-11.73-7.935-19.182-19.182-19.182-11.454,0-19.458,7.59-19.458,19.8S308.844.552,320.16.552C329.751.552,336.582-5.244,338.445-12.765Z" transform="translate(-1.932 51.06)" fill="red"/></svg>